<?xml version="1.0" encoding="utf-8"?>
<!-- Generator: Adobe Illustrator 26.2.1, SVG Export Plug-In . SVG Version: 6.00 Build 0)  -->
<svg version="1.1" id="Layer_1" xmlns="http://www.w3.org/2000/svg" xmlns:xlink="http://www.w3.org/1999/xlink" x="0px" y="0px"
	 viewBox="0 0 512 512" style="enable-background:new 0 0 512 512;" xml:space="preserve">
<style type="text/css">
	.st0{fill:#FED773;}
	.st1{fill:#F6A535;}
	.st2{fill:url(#SVGID_1_);}
	.st3{fill:url(#SVGID_00000088836886410985275340000012720646092829912494_);}
	.st4{fill:url(#SVGID_00000075155395965701997800000015940683502135057805_);}
	.st5{fill:url(#SVGID_00000000930032304506378630000002656858280193864093_);}
</style>
<path class="st0" d="M145.8,145.9L76.2,77l-1.8,141.1c-0.1,6.6,2.4,13,7,17.8l18.7,23c3.8,4,9.4,5.8,14.9,4.7l118-26.7l-87,19V145.9
	z"/>
<polygon class="st1" points="145.8,145.9 145.8,255.9 232.9,236.9 237,235.9 "/>
<g>
	
		<linearGradient id="SVGID_1_" gradientUnits="userSpaceOnUse" x1="-234.3367" y1="-816.4519" x2="-234.3367" y2="-539.2993" gradientTransform="matrix(4.489700e-11 -1 1 4.489700e-11 746.4944 75.7753)">
		<stop  offset="0" style="stop-color:#FFEF26"/>
		<stop  offset="5.948725e-02" style="stop-color:#FFE000"/>
		<stop  offset="0.1303" style="stop-color:#FFD300"/>
		<stop  offset="0.2032" style="stop-color:#FECB00"/>
		<stop  offset="0.2809" style="stop-color:#FDC800"/>
		<stop  offset="0.6685" style="stop-color:#F18F34"/>
		<stop  offset="0.8876" style="stop-color:#E95F32"/>
		<stop  offset="1" style="stop-color:#E3312D"/>
	</linearGradient>
	<path class="st2" d="M100.5,357.5c5.2,5.3,12.3,8.3,19.7,8.3h25.1l90.1-91.2l0.9,4.2l-0.9-4.3l-96.4-20H-0.4L100.5,357.5z"/>
	<path class="st0" d="M145.3,365.7l-68.8,69.7l141.1,1.8c6.6,0.1,13-2.4,17.8-7l23-18.7c4-3.8,5.8-9.4,4.7-14.9l-26.7-118l19,87
		H145.3z"/>
	<polygon class="st1" points="145.3,365.7 255.4,365.7 236.3,278.7 235.4,274.5 	"/>
</g>
<linearGradient id="SVGID_00000178885778356621216500000011382661167738381484_" gradientUnits="userSpaceOnUse" x1="512.6926" y1="-1252.2581" x2="512.6926" y2="-975.1053" gradientTransform="matrix(-1 0 0 -1 822.2697 -670.7191)">
	<stop  offset="0" style="stop-color:#FFEF26"/>
	<stop  offset="5.948725e-02" style="stop-color:#FFE000"/>
	<stop  offset="0.1303" style="stop-color:#FFD300"/>
	<stop  offset="0.2032" style="stop-color:#FECB00"/>
	<stop  offset="0.2809" style="stop-color:#FDC800"/>
	<stop  offset="0.6685" style="stop-color:#F18F34"/>
	<stop  offset="0.8876" style="stop-color:#E95F32"/>
	<stop  offset="1" style="stop-color:#E3312D"/>
</linearGradient>
<path style="fill:url(#SVGID_00000178885778356621216500000011382661167738381484_);" d="M356.9,411.1c5.3-5.2,8.3-12.3,8.3-19.7
	v-25.1L274,276.2l4.2-0.9l-4.3,0.9l-20,96.4V512L356.9,411.1z"/>
<path class="st0" d="M365.2,366.3l69.7,68.8l1.8-141.1c0.1-6.6-2.4-13-7-17.8l-18.7-23c-3.8-4-9.4-5.8-14.9-4.7l-118,26.7l87-19
	V366.3z"/>
<polygon class="st1" points="365.2,366.3 365.2,256.2 278.2,275.2 274,276.2 "/>
<g>
	
		<linearGradient id="SVGID_00000098929677651540344480000010105806187326946688_" gradientUnits="userSpaceOnUse" x1="948.4987" y1="-505.2288" x2="948.4987" y2="-228.0761" gradientTransform="matrix(-4.489700e-11 1 -1 -4.489700e-11 75.7753 -746.4944)">
		<stop  offset="0" style="stop-color:#FFEF26"/>
		<stop  offset="5.948725e-02" style="stop-color:#FFE000"/>
		<stop  offset="0.1303" style="stop-color:#FFD300"/>
		<stop  offset="0.2032" style="stop-color:#FECB00"/>
		<stop  offset="0.2809" style="stop-color:#FDC800"/>
		<stop  offset="0.6685" style="stop-color:#F18F34"/>
		<stop  offset="0.8876" style="stop-color:#E95F32"/>
		<stop  offset="1" style="stop-color:#E3312D"/>
	</linearGradient>
	<path style="fill:url(#SVGID_00000098929677651540344480000010105806187326946688_);" d="M410.5,154.6c-5.2-5.3-12.3-8.3-19.7-8.3
		h-25.1l-90.1,91.2l-0.9-4.2l0.9,4.3l96.4,20h139.5L410.5,154.6z"/>
	<path class="st0" d="M365.7,146.4l68.8-69.7l-141.1-1.8c-6.6-0.1-13,2.4-17.8,7l-23,18.7c-4,3.8-5.8,9.4-4.7,14.9l26.7,118l-19-87
		H365.7z"/>
	<polygon class="st1" points="365.7,146.4 255.7,146.4 274.7,233.4 275.6,237.6 	"/>
</g>
<linearGradient id="SVGID_00000123436345676125568740000014776997454953479846_" gradientUnits="userSpaceOnUse" x1="201.4694" y1="-69.4226" x2="201.4694" y2="207.73">
	<stop  offset="0" style="stop-color:#FFEF26"/>
	<stop  offset="5.948725e-02" style="stop-color:#FFE000"/>
	<stop  offset="0.1303" style="stop-color:#FFD300"/>
	<stop  offset="0.2032" style="stop-color:#FECB00"/>
	<stop  offset="0.2809" style="stop-color:#FDC800"/>
	<stop  offset="0.6685" style="stop-color:#F18F34"/>
	<stop  offset="0.8876" style="stop-color:#E95F32"/>
	<stop  offset="1" style="stop-color:#E3312D"/>
</linearGradient>
<path style="fill:url(#SVGID_00000123436345676125568740000014776997454953479846_);" d="M154.1,101.1c-5.3,5.2-8.3,12.3-8.3,19.7
	v25.1l91.2,90.1l-4.2,0.9l4.3-0.9l20-96.4V0.1L154.1,101.1z"/>
</svg>
