<svg xmlns="http://www.w3.org/2000/svg" viewBox="0 0 276.92 333.02"><defs><style>.cls-1{fill:#050505;}</style></defs><g id="Layer_2" data-name="Layer 2"><g id="Layer_1-2" data-name="Layer 1"><rect class="cls-1" x="110.22" width="56.49" height="169.23"/><path class="cls-1" d="M222.15,84.27l-27,40.7s0,0,0,0c32.35,26.43,45.95,75,17.64,122.57-4.33,7.28-13.86,16.88-21.13,21.22-70.41,42.06-143-7.61-143-74.24a89.56,89.56,0,0,1,32.76-69.32.44.44,0,0,0,.08-.57L54.77,84.27C4.56,122.43-18.84,194.06,18,266a113.89,113.89,0,0,0,50,49.55c104.81,52.93,208.91-21.85,208.91-120.95A138.23,138.23,0,0,0,222.15,84.27Z"/></g></g></svg>